<?xml version="1.0" encoding="UTF-8"?>
<svg width="192" height="192" version="1.1" viewBox="0 0 50.8 50.8" xmlns="http://www.w3.org/2000/svg" xmlns:xlink="http://www.w3.org/1999/xlink">
 <defs>
  <filter id="b" x="-.36805" y="-.24404" width="1.8894" height="1.5898" color-interpolation-filters="sRGB">
   <feFlood flood-color="rgb(19,35,126)" flood-opacity=".2" result="flood"/>
   <feComposite in="flood" in2="SourceGraphic" operator="in" result="composite1"/>
   <feGaussianBlur in="composite1" result="blur" stdDeviation="4"/>
   <feOffset dx="4" dy="4" result="offset"/>
   <feComposite in="SourceGraphic" in2="offset" result="composite2"/>
  </filter>
  <radialGradient id="a" cx="-1.1579e-17" cy="-3.5874e-32" r="25.4" gradientTransform="matrix(0 2.4136 -2.5623 0 0 0)" gradientUnits="userSpaceOnUse">
   <stop stop-color="#fff" stop-opacity=".10296" offset="0"/>
   <stop stop-color="#fff" stop-opacity="0" offset="1"/>
  </radialGradient>
 </defs>
 <rect y="-2.7756e-17" width="50.8" height="50.8" fill="#6a1b9a"/>
 <g filter="url(#b)">
  <rect x="8.4667" y="2.1167" width="33.867" height="46.567" rx="14.817" ry="14.817" fill="#38006b"/>
  <path d="m24.805 4.3386a19.844 19.844 0 0 0-1.2871-0.28202 23.812 23.812 0 0 1 5.2862 21.812 23.812 23.812 0 0 1-15.206 16.514 19.844 19.844 0 0 0 1.2734 0.38043 19.844 19.844 0 0 0 24.179-14.246 19.844 19.844 0 0 0-14.246-24.179z" fill="#cfcfcf"/>
 </g>
 <path d="m23.283 2.1167c-8.2084 0-14.817 6.6082-14.817 14.817v0.26458c0-8.2084 6.6082-14.817 14.817-14.817h4.2333c8.2084 0 14.817 6.6082 14.817 14.817v-0.26458c0-8.2084-6.6082-14.817-14.817-14.817z" fill="#fff" fill-opacity=".2"/>
 <path d="m27.517 48.683c8.2084 0 14.817-6.6082 14.817-14.817v-0.26458c0 8.2084-6.6082 14.817-14.817 14.817h-4.2333c-8.2084 0-14.817-6.6082-14.817-14.817v0.26458c0 8.2084 6.6082 14.817 14.817 14.817z" fill="#1a237e" fill-opacity=".2"/>
 <rect y="-2.7756e-17" width="50.8" height="50.8" fill-opacity="0"/>
 <rect y="-2.7756e-17" width="50.8" height="50.8" fill="url(#a)"/>
</svg>
