<?xml version="1.0" encoding="UTF-8"?>
<svg width="192" height="192" version="1.1" viewBox="0 0 192 192" xml:space="preserve" xmlns="http://www.w3.org/2000/svg" xmlns:xlink="http://www.w3.org/1999/xlink"><defs><radialGradient id="a" cx="0" cy="0" r="192" gradientUnits="userSpaceOnUse"><stop stop-color="#fff" offset="0"/><stop stop-color="#fff" stop-opacity="0" offset="1"/></radialGradient></defs><rect width="192" height="192" fill="#5a008a" stroke-width=".94951"/><g><rect x="-192" y="-192" width="384" height="384" fill="url(#a)" opacity=".3" stroke-width="8.9233"/><g transform="rotate(-15 65.962 135.14)"><path d="m121.84 34.264a62 62 0 0 1 16.164 41.736 62 62 0 0 1-62 62 62 62 0 0 1-41.748-16.373 72 72 0 0 0 69.748 54.373 72 72 0 0 0 72-72 72 72 0 0 0-54.164-69.736z" fill="#f2f2f1" stroke-width="5.5342"/><path d="m121.84 34.264a62 62 0 0 1 16.164 41.736 62 62 0 0 1-62 62 62 62 0 0 1-41.748-16.373 72 72 0 0 0 0.04102 0.125 62 62 0 0 0 45.707 20.248 62 62 0 0 0 62-62 62 62 0 0 0-20.143-45.729 72 72 0 0 0-0.0215-0.0078z" fill="#fff" opacity=".8" stroke-width="7.6164"/><path d="m152.86 51.139a72 72 0 0 1 19.139 48.861 72 72 0 0 1-72 72 72 72 0 0 1-47.15-17.586 72 72 0 0 0 51.15 21.586 72 72 0 0 0 72-72 72 72 0 0 0-23.139-52.861z" opacity=".3" stroke-width="3.0149"/></g></g></svg>
