<?xml version="1.0" encoding="UTF-8"?>
<svg width="43.439" height="42.366" version="1.1" viewBox="0 0 43.439 42.366" xmlns="http://www.w3.org/2000/svg"><path d="m21.717 0c-11.992 0-21.717 9.724-21.717 21.72 0 9.596 6.2227 17.736 14.853 20.608 1.0867 0.2 1.4827-0.47067 1.4827-1.0467 0-0.516-0.0187-1.8813-0.0293-3.6933-6.0413 1.312-7.316-2.912-7.316-2.912-0.988-2.5093-2.412-3.1773-2.412-3.1773-1.972-1.3467 0.14933-1.32 0.14933-1.32 2.18 0.15333 3.3267 2.2387 3.3267 2.2387 1.9373 3.3187 5.084 2.36 6.3213 1.804 0.19734-1.4027 0.75867-2.36 1.3787-2.9027-4.8227-0.548-9.8933-2.412-9.8933-10.735 0-2.3707 0.84666-4.3107 2.236-5.828-0.224-0.54933-0.96934-2.7587 0.21333-5.748 0 0 1.8227-0.584 5.972 2.2267 1.732-0.48267 3.5907-0.72267 5.4373-0.732 1.8453 9e-3 3.7027 0.24933 5.4373 0.732 4.1467-2.8107 5.9667-2.2267 5.9667-2.2267 1.1853 2.9893 0.44 5.1987 0.21733 5.748 1.392 1.5173 2.232 3.4573 2.232 5.828 0 8.344-5.0787 10.18-9.916 10.717 0.77867 0.67066 1.4733 1.996 1.4733 4.0213 0 2.904-0.0267 5.2467-0.0267 5.9587 0 0.58134 0.392 1.2573 1.4933 1.0453 8.624-2.8787 14.841-11.013 14.841-20.607 0-11.996-9.7253-21.72-21.721-21.72" fill="#fff" fill-rule="evenodd"/></svg>
